<?xml version="1.0" encoding="UTF-8"?>
<svg xmlns="http://www.w3.org/2000/svg" xmlns:xlink="http://www.w3.org/1999/xlink" width="32px" height="32px" viewBox="0 0 32 32" version="1.1">
<g id="surface1">
<path style=" stroke:none;fill-rule:nonzero;fill:rgb(100%,100%,100%);fill-opacity:1;" d="M 5.902344 8.246094 C 5.984375 8.269531 6.09375 8.265625 6.144531 8.316406 C 7.21875 9.382812 8.292969 10.453125 9.359375 11.527344 C 10.40625 12.582031 11.445312 13.644531 12.496094 14.691406 C 13.050781 15.246094 13.625 15.777344 14.1875 16.3125 C 13.234375 17.289062 12.335938 18.210938 11.433594 19.125 C 10.84375 19.71875 10.238281 20.292969 9.652344 20.886719 C 8.871094 21.679688 8.101562 22.488281 7.324219 23.28125 C 6.9375 23.675781 6.542969 24.058594 6.144531 24.433594 C 6.089844 24.488281 5.984375 24.488281 5.902344 24.515625 C 5.582031 24.183594 5.265625 23.855469 4.949219 23.523438 C 5 23.441406 5.039062 23.34375 5.109375 23.273438 C 5.917969 22.433594 6.730469 21.597656 7.546875 20.765625 C 8.84375 19.453125 10.140625 18.140625 11.4375 16.828125 C 11.582031 16.679688 11.710938 16.515625 11.90625 16.289062 C 11.460938 15.871094 11.003906 15.457031 10.570312 15.023438 C 9.578125 14.039062 8.597656 13.050781 7.617188 12.0625 C 6.773438 11.214844 5.929688 10.371094 5.085938 9.519531 C 5.027344 9.460938 4.996094 9.371094 4.949219 9.296875 L 5.902344 8.242188 Z M 5.902344 8.246094 "/>
<path style=" stroke:none;fill-rule:nonzero;fill:rgb(100%,100%,100%);fill-opacity:1;" d="M 25.984375 24.515625 C 25.890625 24.480469 25.765625 24.472656 25.699219 24.40625 C 24.324219 23.046875 22.953125 21.679688 21.589844 20.308594 C 20.753906 19.472656 19.929688 18.632812 19.101562 17.789062 C 18.699219 17.378906 18.308594 16.949219 17.902344 16.542969 C 17.769531 16.410156 17.796875 16.332031 17.914062 16.210938 C 18.617188 15.503906 19.300781 14.777344 20 14.070312 C 21.148438 12.90625 22.300781 11.746094 23.453125 10.585938 C 24.171875 9.863281 24.886719 9.132812 25.613281 8.414062 C 25.691406 8.335938 25.8125 8.300781 25.917969 8.242188 C 26.238281 8.578125 26.5625 8.910156 26.886719 9.242188 C 26.871094 9.3125 26.875 9.40625 26.832031 9.449219 C 25.949219 10.347656 25.0625 11.238281 24.175781 12.128906 C 23.289062 13.023438 22.410156 13.929688 21.511719 14.816406 C 21.007812 15.3125 20.476562 15.777344 19.921875 16.289062 C 20.632812 17.011719 21.269531 17.660156 21.90625 18.308594 C 23.042969 19.457031 24.179688 20.605469 25.3125 21.757812 C 25.8125 22.265625 26.304688 22.777344 26.800781 23.292969 C 26.859375 23.355469 26.894531 23.441406 26.941406 23.515625 C 26.625 23.847656 26.304688 24.183594 25.988281 24.515625 "/>
<path style=" stroke:none;fill-rule:nonzero;fill:rgb(100%,100%,100%);fill-opacity:1;" d="M 23.859375 6.257812 C 23.828125 6.320312 23.808594 6.390625 23.761719 6.4375 C 22.359375 7.824219 20.957031 9.207031 19.558594 10.597656 C 18.417969 11.726562 17.289062 12.871094 16.15625 14.007812 C 16.105469 14.058594 16.070312 14.117188 16 14.210938 C 15.894531 14.113281 15.804688 14.035156 15.71875 13.949219 C 14.003906 12.25 12.292969 10.554688 10.582031 8.855469 C 9.792969 8.074219 9.003906 7.28125 8.222656 6.488281 C 8.167969 6.433594 8.164062 6.332031 8.136719 6.25 C 8.4375 5.925781 8.738281 5.601562 9.035156 5.277344 C 9.136719 5.304688 9.269531 5.296875 9.335938 5.359375 C 10.882812 6.898438 12.414062 8.445312 13.96875 9.976562 C 14.636719 10.636719 15.347656 11.257812 16.066406 11.921875 C 16.328125 11.644531 16.640625 11.300781 16.96875 10.964844 C 17.617188 10.308594 18.273438 9.660156 18.921875 9.007812 C 20.144531 7.78125 21.367188 6.550781 22.59375 5.324219 C 22.648438 5.265625 22.742188 5.246094 22.816406 5.207031 C 23.167969 5.558594 23.515625 5.910156 23.863281 6.257812 "/>
<path style=" stroke:none;fill-rule:nonzero;fill:rgb(100%,100%,100%);fill-opacity:1;" d="M 8.136719 26.535156 C 8.410156 26.214844 8.664062 25.875 8.957031 25.574219 C 10.300781 24.195312 11.660156 22.824219 13.011719 21.453125 C 13.9375 20.515625 14.863281 19.578125 15.789062 18.644531 C 15.832031 18.601562 15.882812 18.566406 15.90625 18.550781 C 16.484375 19.105469 17.054688 19.640625 17.609375 20.195312 C 19.3125 21.910156 21.011719 23.636719 22.710938 25.355469 C 23.011719 25.660156 23.308594 25.964844 23.601562 26.277344 C 23.667969 26.34375 23.703125 26.441406 23.753906 26.523438 C 23.417969 26.867188 23.082031 27.210938 22.746094 27.550781 C 22.6875 27.523438 22.613281 27.503906 22.566406 27.457031 C 20.949219 25.851562 19.335938 24.246094 17.726562 22.628906 C 17.136719 22.039062 16.5625 21.429688 15.945312 20.789062 C 15.511719 21.226562 15.105469 21.644531 14.691406 22.058594 C 13.5 23.246094 12.300781 24.429688 11.109375 25.625 C 10.566406 26.167969 10.039062 26.734375 9.496094 27.28125 C 9.386719 27.386719 9.226562 27.445312 9.089844 27.523438 C 8.773438 27.195312 8.457031 26.863281 8.136719 26.535156 "/>
<path style=" stroke:none;fill-rule:nonzero;fill:rgb(100%,16.078431%,8.235294%);fill-opacity:1;" d="M 18.144531 29.832031 C 18.144531 31.027344 17.136719 32 15.890625 32 C 14.644531 32 13.636719 31.027344 13.636719 29.832031 C 13.636719 28.632812 14.644531 27.660156 15.890625 27.660156 C 17.136719 27.660156 18.144531 28.632812 18.144531 29.832031 Z M 18.144531 29.832031 "/>
<path style=" stroke:none;fill-rule:nonzero;fill:rgb(100%,16.078431%,8.235294%);fill-opacity:1;" d="M 18.144531 2.222656 C 18.144531 3.453125 17.136719 4.449219 15.890625 4.449219 C 14.644531 4.449219 13.636719 3.453125 13.636719 2.222656 C 13.636719 0.996094 14.644531 0 15.890625 0 C 17.136719 0 18.144531 0.996094 18.144531 2.222656 Z M 18.144531 2.222656 "/>
<path style=" stroke:none;fill-rule:nonzero;fill:rgb(100%,16.078431%,8.235294%);fill-opacity:1;" d="M 4.507812 16.324219 C 4.507812 17.554688 3.5 18.550781 2.253906 18.550781 C 1.007812 18.550781 0 17.554688 0 16.324219 C 0 15.097656 1.007812 14.101562 2.253906 14.101562 C 3.5 14.101562 4.507812 15.097656 4.507812 16.324219 Z M 4.507812 16.324219 "/>
<path style=" stroke:none;fill-rule:nonzero;fill:rgb(100%,16.078431%,8.235294%);fill-opacity:1;" d="M 32 16.324219 C 32 17.554688 30.992188 18.550781 29.746094 18.550781 C 28.5 18.550781 27.492188 17.554688 27.492188 16.324219 C 27.492188 15.097656 28.5 14.101562 29.746094 14.101562 C 30.992188 14.101562 32 15.097656 32 16.324219 Z M 32 16.324219 "/>
</g>
</svg>
