<?xml version="1.0" encoding="UTF-8"?>
<svg xmlns="http://www.w3.org/2000/svg" xmlns:xlink="http://www.w3.org/1999/xlink" width="256px" height="256px" viewBox="0 0 256 256" version="1.1">
<g id="surface1">
<path style=" stroke:none;fill-rule:nonzero;fill:rgb(100%,100%,100%);fill-opacity:1;" d="M 47.230469 65.972656 C 47.886719 66.148438 48.746094 66.113281 49.164062 66.53125 C 57.765625 75.066406 66.335938 83.628906 74.878906 92.21875 C 83.253906 100.644531 91.558594 109.144531 99.96875 117.535156 C 104.402344 121.960938 109.003906 126.214844 113.484375 130.507812 C 105.863281 138.300781 98.699219 145.6875 91.460938 153 C 86.765625 157.75 81.898438 162.339844 77.207031 167.097656 C 70.957031 173.4375 64.824219 179.890625 58.589844 186.25 C 55.507812 189.394531 52.347656 192.457031 49.160156 195.484375 C 48.710938 195.90625 47.871094 195.921875 47.214844 196.121094 C 44.671875 193.480469 42.132812 190.835938 39.585938 188.191406 C 40.007812 187.515625 40.320312 186.738281 40.867188 186.175781 C 47.355469 179.476562 53.851562 172.78125 60.386719 166.132812 C 70.742188 155.613281 81.136719 145.132812 91.492188 134.613281 C 92.652344 133.429688 93.679688 132.117188 95.238281 130.328125 C 91.679688 126.960938 88.035156 123.644531 84.546875 120.179688 C 76.632812 112.324219 68.796875 104.394531 60.925781 96.492188 C 54.179688 89.722656 47.425781 82.96875 40.699219 76.171875 C 40.21875 75.691406 39.972656 74.980469 39.609375 74.375 L 47.230469 65.953125 Z M 47.230469 65.972656 "/>
<path style=" stroke:none;fill-rule:nonzero;fill:rgb(100%,100%,100%);fill-opacity:1;" d="M 207.890625 196.121094 C 207.109375 195.84375 206.125 195.773438 205.597656 195.253906 C 194.597656 184.363281 183.632812 173.441406 172.703125 162.476562 C 166.042969 155.792969 159.425781 149.058594 152.828125 142.316406 C 149.597656 139.015625 146.480469 135.605469 143.222656 132.328125 C 142.164062 131.265625 142.375 130.664062 143.328125 129.699219 C 148.925781 124.015625 154.410156 118.230469 160.007812 112.550781 C 169.1875 103.238281 178.414062 93.980469 187.621094 84.695312 C 193.371094 78.898438 199.101562 73.070312 204.898438 67.308594 C 205.527344 66.675781 206.515625 66.398438 207.335938 65.953125 C 209.921875 68.621094 212.507812 71.277344 215.089844 73.945312 C 214.957031 74.507812 215.015625 75.25 214.671875 75.605469 C 207.609375 82.773438 200.496094 89.890625 193.414062 97.027344 C 186.304688 104.195312 179.269531 111.433594 172.085938 118.523438 C 168.074219 122.488281 163.8125 126.21875 159.363281 130.320312 C 165.058594 136.105469 170.160156 141.289062 175.261719 146.460938 C 184.339844 155.664062 193.433594 164.84375 202.5 174.050781 C 206.496094 178.113281 210.445312 182.21875 214.390625 186.335938 C 214.875 186.84375 215.160156 187.53125 215.53125 188.136719 C 212.988281 190.796875 210.4375 193.457031 207.894531 196.113281 "/>
<path style=" stroke:none;fill-rule:nonzero;fill:rgb(100%,100%,100%);fill-opacity:1;" d="M 190.886719 50.070312 C 190.625 50.546875 190.464844 51.128906 190.082031 51.496094 C 178.886719 62.597656 167.644531 73.648438 156.460938 84.769531 C 147.34375 93.828125 138.304688 102.964844 129.246094 112.070312 C 128.859375 112.460938 128.570312 112.945312 128.015625 113.679688 C 127.164062 112.898438 126.429688 112.265625 125.75 111.585938 C 112.046875 98.011719 98.335938 84.449219 84.65625 70.859375 C 78.332031 64.582031 72.042969 58.261719 65.789062 51.914062 C 65.351562 51.476562 65.316406 50.652344 65.101562 50.007812 C 67.5 47.40625 69.898438 44.804688 72.296875 42.210938 C 73.105469 42.425781 74.167969 42.390625 74.671875 42.890625 C 87.054688 55.175781 99.308594 67.578125 111.738281 79.816406 C 117.097656 85.09375 122.773438 90.0625 128.535156 95.375 C 130.609375 93.167969 133.113281 90.394531 135.738281 87.730469 C 140.921875 82.472656 146.175781 77.289062 151.382812 72.058594 C 161.167969 62.238281 170.945312 52.394531 180.75 42.589844 C 181.199219 42.140625 181.9375 41.960938 182.542969 41.652344 C 185.328125 44.457031 188.113281 47.265625 190.898438 50.070312 "/>
<path style=" stroke:none;fill-rule:nonzero;fill:rgb(100%,100%,100%);fill-opacity:1;" d="M 65.105469 212.277344 C 67.277344 209.703125 69.304688 206.992188 71.652344 204.585938 C 82.414062 193.550781 93.265625 182.59375 104.089844 171.621094 C 111.488281 164.125 118.898438 156.640625 126.304688 149.164062 C 126.648438 148.816406 127.066406 148.546875 127.257812 148.394531 C 131.867188 152.839844 136.445312 157.109375 140.859375 161.550781 C 154.507812 175.28125 168.089844 189.078125 181.6875 202.851562 C 184.089844 205.28125 186.480469 207.722656 188.820312 210.203125 C 189.34375 210.757812 189.628906 211.527344 190.019531 212.203125 C 187.339844 214.941406 184.664062 217.679688 181.984375 220.421875 C 181.492188 220.175781 180.898438 220.039062 180.527344 219.671875 C 167.601562 206.8125 154.675781 193.953125 141.804688 181.046875 C 137.082031 176.308594 132.5 171.425781 127.554688 166.300781 C 124.09375 169.816406 120.84375 173.160156 117.542969 176.457031 C 107.996094 185.96875 98.40625 195.445312 88.886719 204.988281 C 84.527344 209.359375 80.324219 213.871094 75.960938 218.234375 C 75.09375 219.101562 73.816406 219.558594 72.71875 220.199219 C 70.175781 217.5625 67.640625 214.921875 65.101562 212.285156 "/>
<path style=" stroke:none;fill-rule:nonzero;fill:rgb(100%,16.078431%,8.235294%);fill-opacity:1;" d="M 145.15625 238.644531 C 145.15625 248.230469 137.082031 256 127.121094 256 C 117.160156 256 109.085938 248.230469 109.085938 238.644531 C 109.085938 229.058594 117.160156 221.289062 127.121094 221.289062 C 137.082031 221.289062 145.15625 229.058594 145.15625 238.644531 Z M 145.15625 238.644531 "/>
<path style=" stroke:none;fill-rule:nonzero;fill:rgb(100%,16.078431%,8.235294%);fill-opacity:1;" d="M 145.15625 17.789062 C 145.15625 27.617188 137.082031 35.578125 127.121094 35.578125 C 117.160156 35.578125 109.085938 27.617188 109.085938 17.789062 C 109.085938 7.964844 117.160156 0 127.121094 0 C 137.082031 0 145.15625 7.964844 145.15625 17.789062 Z M 145.15625 17.789062 "/>
<path style=" stroke:none;fill-rule:nonzero;fill:rgb(100%,16.078431%,8.235294%);fill-opacity:1;" d="M 36.070312 130.601562 C 36.070312 140.429688 27.996094 148.394531 18.035156 148.394531 C 8.074219 148.394531 0 140.429688 0 130.601562 C 0 120.777344 8.074219 112.8125 18.035156 112.8125 C 27.996094 112.8125 36.070312 120.777344 36.070312 130.601562 Z M 36.070312 130.601562 "/>
<path style=" stroke:none;fill-rule:nonzero;fill:rgb(100%,16.078431%,8.235294%);fill-opacity:1;" d="M 256 130.601562 C 256 140.429688 247.925781 148.394531 237.964844 148.394531 C 228.003906 148.394531 219.929688 140.429688 219.929688 130.601562 C 219.929688 120.777344 228.003906 112.8125 237.964844 112.8125 C 247.925781 112.8125 256 120.777344 256 130.601562 Z M 256 130.601562 "/>
</g>
</svg>
