<svg width="291" height="295" viewBox="0 0 291 295" fill="none" xmlns="http://www.w3.org/2000/svg">
<path d="M53.6861 76.024C54.4331 76.2245 55.4106 76.1844 55.8874 76.6653C65.6622 86.5013 75.4053 96.3693 85.1166 106.269C94.6371 115.977 104.078 125.773 113.638 135.44C118.677 140.539 123.906 145.445 129 150.391C120.338 159.369 112.192 167.882 103.967 176.307C98.6265 181.782 93.0954 187.073 87.7629 192.556C80.6583 199.859 73.6887 207.298 66.6 214.625C63.0954 218.248 59.5033 221.775 55.8795 225.263C55.3709 225.752 54.4172 225.768 53.6702 226C50.7775 222.954 47.8927 219.908 45 216.861C45.4768 216.084 45.8344 215.186 46.4543 214.537C53.8291 206.817 61.2119 199.105 68.6424 191.442C80.4119 179.321 92.2291 167.241 103.999 155.12C105.318 153.758 106.486 152.243 108.258 150.182C104.213 146.302 100.073 142.479 96.1073 138.487C87.1113 129.436 78.2026 120.298 69.2543 111.191C61.5854 103.392 53.9086 95.6077 46.2636 87.7759C45.7152 87.2227 45.4371 86.4051 45.0238 85.7077L53.6861 76V76.024Z" fill="white"/>
<path d="M236.311 226C235.427 225.68 234.304 225.6 233.707 225C221.203 212.452 208.74 199.864 196.316 187.228C188.742 179.529 181.224 171.767 173.721 163.996C170.05 160.195 166.506 156.266 162.803 152.488C161.6 151.264 161.839 150.568 162.922 149.456C169.285 142.909 175.521 136.243 181.885 129.697C192.318 118.966 202.806 108.298 213.271 97.5989C219.81 90.9168 226.324 84.2026 232.911 77.5605C233.627 76.8323 234.75 76.5122 235.682 76C238.621 79.073 241.56 82.138 244.498 85.2109C244.347 85.8592 244.411 86.7154 244.02 87.1236C235.993 95.3822 227.909 103.585 219.857 111.811C211.774 120.07 203.778 128.409 195.615 136.579C191.051 141.149 186.209 145.446 181.152 150.176C187.627 156.842 193.425 162.812 199.222 168.774C209.544 179.377 219.881 189.956 230.187 200.568C234.726 205.249 239.218 209.979 243.702 214.724C244.251 215.309 244.578 216.101 245 216.797C242.109 219.862 239.21 222.927 236.319 225.992" fill="white"/>
<path d="M216.984 57.6965C216.688 58.2481 216.504 58.9196 216.072 59.3433C203.343 72.1334 190.565 84.8676 177.852 97.6817C167.489 108.122 157.214 118.65 146.915 129.145C146.476 129.593 146.148 130.153 145.516 131C144.548 130.097 143.717 129.369 142.941 128.586C127.365 112.942 111.781 97.314 96.2288 81.6541C89.0404 74.4196 81.892 67.1372 74.7836 59.8229C74.2879 59.3193 74.2479 58.368 74 57.6246C76.7266 54.6269 79.4533 51.6292 82.1799 48.6395C83.0994 48.8873 84.3068 48.8473 84.8825 49.4229C98.9554 63.58 112.884 77.873 127.013 91.9741C133.106 98.0574 139.559 103.781 146.108 109.904C148.467 107.362 151.313 104.165 154.296 101.095C160.189 95.0357 166.162 89.0643 172.079 83.037C183.201 71.7177 194.315 60.3745 205.462 49.0792C205.974 48.5596 206.813 48.3517 207.501 48C210.667 51.2295 213.834 54.467 217 57.6965" fill="white"/>
<path d="M74.0079 244.617C76.4769 241.652 78.7791 238.527 81.4465 235.754C93.6801 223.038 106.017 210.41 118.322 197.766C126.729 189.127 135.152 180.503 143.575 171.887C143.964 171.488 144.44 171.176 144.655 171C149.894 176.123 155.102 181.046 160.119 186.161C175.632 201.986 191.072 217.883 206.529 233.756C209.26 236.553 211.975 239.366 214.635 242.227C215.23 242.867 215.555 243.754 216 244.529C212.952 247.686 209.911 250.843 206.863 254C206.307 253.72 205.632 253.56 205.211 253.137C190.517 238.319 175.822 223.501 161.191 208.628C155.824 203.169 150.617 197.542 144.996 191.636C141.058 195.688 137.367 199.54 133.612 203.337C122.76 214.302 111.86 225.22 101.039 236.217C96.0855 241.252 91.3064 246.455 86.3447 251.482C85.3603 252.481 83.9075 253.009 82.6611 253.744C79.7715 250.707 76.8897 247.662 74 244.625" fill="white"/>
<path d="M165 275C165 286.046 155.823 295 144.5 295C133.177 295 124 286.046 124 275C124 263.954 133.177 255 144.5 255C155.823 255 165 263.954 165 275Z" fill="#FF2915"/>
<path d="M165 20.5C165 31.8226 155.823 41 144.5 41C133.177 41 124 31.8226 124 20.5C124 9.17742 133.177 0 144.5 0C155.823 0 165 9.17742 165 20.5Z" fill="#FF2915"/>
<path d="M41 150.5C41 161.823 31.8226 171 20.5 171C9.17742 171 0 161.823 0 150.5C0 139.177 9.17742 130 20.5 130C31.8226 130 41 139.177 41 150.5Z" fill="#FF2915"/>
<path d="M291 150.5C291 161.823 281.823 171 270.5 171C259.177 171 250 161.823 250 150.5C250 139.177 259.177 130 270.5 130C281.823 130 291 139.177 291 150.5Z" fill="#FF2915"/>
</svg>
